<?xml version="1.0" standalone="no"?>
<!DOCTYPE svg PUBLIC "-//W3C//DTD SVG 20010904//EN"
 "http://www.w3.org/TR/2001/REC-SVG-20010904/DTD/svg10.dtd">
<svg version="1.0" xmlns="http://www.w3.org/2000/svg"
 width="460.000000pt" height="460.000000pt" viewBox="0 0 460.000000 460.000000"
 preserveAspectRatio="xMidYMid meet">
<metadata>
Created by potrace 1.14, written by Peter Selinger 2001-2017
</metadata>
<g transform="translate(0.000000,460.000000) scale(0.100000,-0.100000)"
fill="#000000" stroke="none">
<path d="M2275 4522 c-11 -20 -22 -39 -25 -42 -23 -20 -74 -195 -95 -320 -3
-19 -7 -46 -10 -60 -6 -37 -14 -98 -20 -155 -3 -27 -7 -66 -10 -85 -7 -45 -14
-163 -20 -320 l-5 -125 -63 -60 c-35 -33 -91 -84 -123 -114 -32 -29 -60 -61
-61 -70 -5 -36 -11 -100 -18 -171 -3 -41 -8 -86 -10 -100 -2 -14 -6 -59 -10
-100 -3 -41 -8 -91 -10 -110 -2 -19 -7 -66 -10 -105 -8 -78 1 -66 -155 -205
-41 -36 -100 -90 -133 -120 -32 -30 -67 -61 -76 -70 -41 -35 -158 -140 -192
-171 -40 -37 -178 -163 -274 -248 -33 -30 -70 -63 -82 -75 -11 -12 -45 -42
-75 -68 -29 -26 -69 -62 -89 -80 l-35 -33 -3 -135 -2 -135 63 -57 c35 -31 82
-74 106 -96 34 -31 66 -46 155 -75 62 -20 126 -39 142 -43 17 -4 36 -11 43
-17 20 -15 24 -4 26 71 0 39 4 68 7 66 3 -2 5 -33 4 -69 -1 -36 1 -68 4 -73 5
-6 104 -41 136 -48 22 -4 190 -57 194 -60 3 -2 5 -29 6 -59 2 -62 23 -37 -175
-215 -46 -41 -96 -87 -112 -101 -29 -26 -31 -39 -28 -169 1 -8 -1 -48 -2 -88
-2 -39 -1 -72 2 -73 19 -3 43 -9 100 -27 54 -17 232 -72 250 -77 3 -1 14 -6
24 -10 13 -6 21 -5 24 3 2 7 8 12 13 12 5 0 22 12 37 27 15 16 65 62 111 103
46 41 116 106 157 144 l74 69 -3 118 c-1 66 0 119 3 119 3 -1 30 -23 60 -50
l55 -50 35 33 c19 17 37 34 40 37 47 45 45 48 43 -82 -1 -121 7 -158 35 -158
34 0 41 25 39 144 -1 65 1 123 5 129 5 7 8 8 8 1 0 -5 24 -31 54 -56 l53 -47
54 49 c30 27 55 47 57 45 2 -2 4 -56 4 -120 l1 -117 45 -41 c25 -23 63 -59 85
-79 22 -21 44 -35 48 -32 5 3 9 0 9 -7 0 -7 15 -26 34 -43 93 -86 169 -151
175 -151 4 0 95 27 202 59 l194 59 -1 76 c-1 42 -3 81 -4 86 -1 6 -1 15 0 20
1 6 2 34 1 64 -1 60 9 47 -147 186 -184 164 -170 147 -169 212 l0 58 55 18
c30 9 64 19 75 21 11 3 58 16 105 31 47 15 90 28 96 30 7 2 10 26 9 64 -2 34
0 63 4 65 3 2 6 -17 6 -42 -1 -58 3 -72 21 -72 8 0 65 17 126 37 62 20 119 36
125 36 7 0 13 4 13 9 0 4 3 7 8 7 20 -3 32 2 26 13 -4 7 -3 8 4 4 7 -4 29 10
51 32 21 21 66 62 100 92 l60 53 -1 138 -2 138 -36 30 c-20 16 -57 50 -84 75
-26 25 -49 46 -51 46 -2 0 -18 15 -37 33 -18 17 -73 68 -122 112 -50 44 -106
96 -127 115 -20 19 -51 47 -68 61 -18 15 -53 46 -79 70 -26 24 -87 80 -136
124 -49 44 -102 91 -116 105 -79 75 -174 155 -182 152 -4 -1 -7 2 -6 7 2 5
-12 21 -29 37 -29 26 -33 36 -38 99 -6 73 -12 136 -21 220 -2 28 -7 70 -9 95
-2 25 -6 72 -10 105 -7 67 -13 130 -14 158 -1 10 -31 46 -68 80 -36 34 -93 87
-125 117 l-59 55 -4 130 c-7 199 -16 323 -29 395 -2 14 -7 52 -11 85 -4 32 -9
68 -11 79 -2 11 -6 37 -9 57 -3 20 -10 50 -15 68 -5 17 -9 34 -9 36 2 55 -88
269 -120 289 -4 3 -16 -12 -26 -32z m1120 -3422 c3 -5 1 -10 -4 -10 -6 0 -11
5 -11 10 0 6 2 10 4 10 3 0 8 -4 11 -10z"/>
</g>
</svg>
